<?xml version="1.0" encoding="UTF-8" standalone="no"?>
<svg xmlns="http://www.w3.org/2000/svg" width="600mm" height="600mm" viewBox="0 0 600 600" version="1.1">
  <rect x="0" y="0" width="600" height="600" style="fill:#ffffff;stroke:none"/>

  <g id="contour">
    <rect x="8" y="8" width="584" height="584" style="fill:none;stroke:#000000;stroke-width:12"/>
  </g>

  <g id="artwork">
    <rect x="16" y="18" width="568" height="564" style="fill:none;stroke:#000000;stroke-width:2"/>
    <image href="JuMarker1CHIMETA.png" x="24" y="210" width="552" height="150" preserveAspectRatio="xMidYMid meet"/>
  </g>

  <g id="code">
    <rect id="bit_00" x="16" y="19" width="81" height="27" style="fill:#000000;stroke:#000000;stroke-width:1"/>
    <rect id="bit_01" x="97" y="19" width="81" height="27" style="fill:#ffffff;stroke:#000000;stroke-width:1"/>
    <rect id="bit_02" x="178" y="19" width="81" height="27" style="fill:#000000;stroke:#000000;stroke-width:1"/>
    <rect id="bit_03" x="259" y="19" width="81" height="27" style="fill:#ffffff;stroke:#000000;stroke-width:1"/>
    <rect id="bit_04" x="340" y="19" width="81" height="27" style="fill:#000000;stroke:#000000;stroke-width:1"/>
    <rect id="bit_05" x="421" y="19" width="81" height="27" style="fill:#ffffff;stroke:#000000;stroke-width:1"/>
    <rect id="bit_06" x="502" y="19" width="81" height="27" style="fill:#000000;stroke:#000000;stroke-width:1"/>
    <rect id="bit_07" x="16" y="46" width="81" height="27" style="fill:#ffffff;stroke:#000000;stroke-width:1"/>
    <rect id="bit_08" x="97" y="46" width="81" height="27" style="fill:#000000;stroke:#000000;stroke-width:1"/>
    <rect id="bit_09" x="178" y="46" width="81" height="27" style="fill:#ffffff;stroke:#000000;stroke-width:1"/>
    <rect id="bit_10" x="259" y="46" width="81" height="27" style="fill:#000000;stroke:#000000;stroke-width:1"/>
    <rect id="bit_11" x="340" y="46" width="81" height="27" style="fill:#ffffff;stroke:#000000;stroke-width:1"/>
    <rect id="bit_12" x="421" y="46" width="81" height="27" style="fill:#000000;stroke:#000000;stroke-width:1"/>
    <rect id="bit_13" x="502" y="46" width="81" height="27" style="fill:#ffffff;stroke:#000000;stroke-width:1"/>
    <rect id="bit_14" x="16" y="73" width="81" height="27" style="fill:#000000;stroke:#000000;stroke-width:1"/>
    <rect id="bit_15" x="97" y="73" width="81" height="27" style="fill:#ffffff;stroke:#000000;stroke-width:1"/>
    <rect id="bit_16" x="178" y="73" width="81" height="27" style="fill:#000000;stroke:#000000;stroke-width:1"/>
    <rect id="bit_17" x="259" y="73" width="81" height="27" style="fill:#ffffff;stroke:#000000;stroke-width:1"/>
    <rect id="bit_18" x="340" y="73" width="81" height="27" style="fill:#000000;stroke:#000000;stroke-width:1"/>
    <rect id="bit_19" x="421" y="73" width="81" height="27" style="fill:#ffffff;stroke:#000000;stroke-width:1"/>
    <rect id="bit_20" x="502" y="73" width="81" height="27" style="fill:#000000;stroke:#000000;stroke-width:1"/>
    <rect id="bit_21" x="18" y="475" width="81" height="27" style="fill:#ffffff;stroke:#000000;stroke-width:1"/>
    <rect id="bit_22" x="99" y="475" width="81" height="27" style="fill:#000000;stroke:#000000;stroke-width:1"/>
    <rect id="bit_23" x="180" y="475" width="81" height="27" style="fill:#ffffff;stroke:#000000;stroke-width:1"/>
    <rect id="bit_24" x="261" y="475" width="81" height="27" style="fill:#000000;stroke:#000000;stroke-width:1"/>
    <rect id="bit_25" x="342" y="475" width="81" height="27" style="fill:#ffffff;stroke:#000000;stroke-width:1"/>
    <rect id="bit_26" x="423" y="475" width="81" height="27" style="fill:#000000;stroke:#000000;stroke-width:1"/>
    <rect id="bit_27" x="504" y="475" width="81" height="27" style="fill:#ffffff;stroke:#000000;stroke-width:1"/>
    <rect id="bit_28" x="18" y="502" width="81" height="27" style="fill:#000000;stroke:#000000;stroke-width:1"/>
    <rect id="bit_29" x="99" y="502" width="81" height="27" style="fill:#ffffff;stroke:#000000;stroke-width:1"/>
    <rect id="bit_30" x="180" y="502" width="81" height="27" style="fill:#000000;stroke:#000000;stroke-width:1"/>
    <rect id="bit_31" x="261" y="502" width="81" height="27" style="fill:#ffffff;stroke:#000000;stroke-width:1"/>
    <rect id="bit_32" x="342" y="502" width="81" height="27" style="fill:#000000;stroke:#000000;stroke-width:1"/>
    <rect id="bit_33" x="423" y="502" width="81" height="27" style="fill:#ffffff;stroke:#000000;stroke-width:1"/>
    <rect id="bit_34" x="504" y="502" width="81" height="27" style="fill:#000000;stroke:#000000;stroke-width:1"/>
    <rect id="bit_35" x="18" y="529" width="81" height="27" style="fill:#ffffff;stroke:#000000;stroke-width:1"/>
    <rect id="bit_36" x="99" y="529" width="81" height="27" style="fill:#000000;stroke:#000000;stroke-width:1"/>
    <rect id="bit_37" x="180" y="529" width="81" height="27" style="fill:#ffffff;stroke:#000000;stroke-width:1"/>
    <rect id="bit_38" x="261" y="529" width="81" height="27" style="fill:#000000;stroke:#000000;stroke-width:1"/>
    <rect id="bit_39" x="342" y="529" width="81" height="27" style="fill:#ffffff;stroke:#000000;stroke-width:1"/>
    <rect id="bit_40" x="423" y="529" width="81" height="27" style="fill:#000000;stroke:#000000;stroke-width:1"/>
    <rect id="bit_41" x="504" y="529" width="81" height="27" style="fill:#ffffff;stroke:#000000;stroke-width:1"/>
    <rect id="bit_42" x="18" y="556" width="81" height="25" style="fill:#000000;stroke:#000000;stroke-width:1"/>
    <rect id="bit_43" x="99" y="556" width="81" height="25" style="fill:#ffffff;stroke:#000000;stroke-width:1"/>
    <rect id="bit_44" x="180" y="556" width="81" height="25" style="fill:#000000;stroke:#000000;stroke-width:1"/>
    <rect id="bit_45" x="261" y="556" width="81" height="25" style="fill:#ffffff;stroke:#000000;stroke-width:1"/>
    <rect id="bit_46" x="342" y="556" width="81" height="25" style="fill:#000000;stroke:#000000;stroke-width:1"/>
    <rect id="bit_47" x="423" y="556" width="81" height="25" style="fill:#ffffff;stroke:#000000;stroke-width:1"/>
    <rect id="bit_48" x="504" y="556" width="81" height="25" style="fill:#000000;stroke:#000000;stroke-width:1"/>
  </g>
</svg>
